<svg id="Layer_1" data-name="Layer 1" xmlns="http://www.w3.org/2000/svg" viewBox="0 0 298 298"><defs><style>.cls-1{fill:#a89273;}</style></defs><title>multi-inviations</title><path class="cls-1" d="M136.7,149H190a3,3,0,0,0,0-6H136.7A3,3,0,0,0,136.7,149Z" transform="translate(-0.1 -1.21)"/><path class="cls-1" d="M113.5,88L95,109.59l-11.33-8.49a3,3,0,1,0-3.56,4.74L93.64,116a3,3,0,0,0,4-.44L118,91.84A3,3,0,0,0,113.5,88Z" transform="translate(-0.1 -1.21)"/><path class="cls-1" d="M136.7,107H190c1.64,0,3-.86,3-2.5s-1.33-2.5-3-2.5H136.7c-1.64,0-3,.86-3,2.5S135.07,107,136.7,107Z" transform="translate(-0.1 -1.21)"/><path class="cls-1" d="M113.5,173.93L95,195.53,83.65,187a3,3,0,1,0-3.56,4.74l13.55,10.16a3,3,0,0,0,4-.44L118,177.79A3,3,0,0,0,113.5,173.93Z" transform="translate(-0.1 -1.21)"/><path class="cls-1" d="M113.5,129.48L95,151.08l-11.33-8.49a3,3,0,1,0-3.56,4.74l13.55,10.16a3,3,0,0,0,4-.44L118,133.34A3,3,0,0,0,113.5,129.48Z" transform="translate(-0.1 -1.21)"/><path class="cls-1" d="M149.1,1.21a149,149,0,1,0,149,149A149,149,0,0,0,149.1,1.21ZM136.7,190h30.87a44.24,44.24,0,0,0-2.67,14.84A43.76,43.76,0,0,0,167.7,220H84.44C70.75,220,59,209.22,59,195.53V91c0-13.69,11.75-25,25.44-25H189c13.69,0,24,11.31,24,25v73.5a35,35,0,0,0-7-.54,40,40,0,0,0-35.64,21H136.7c-1.64,0-3,.86-3,2.5S135.07,190,136.7,190Zm69.4,47.68a32.8,32.8,0,1,1,32.8-32.8A32.82,32.82,0,0,1,206.1,237.68Z" transform="translate(-0.1 -1.21)"/><path class="cls-1" d="M222.6,202H208V190a2.55,2.55,0,0,0-2.3-2.7,2.43,2.43,0,0,0-2.7,2.3V202H190.2a3,3,0,0,0,0,6H203v14.48a2.55,2.55,0,0,0,2.3,2.7,2.43,2.43,0,0,0,2.7-2.3V208h14.6a3,3,0,0,0,3-3A3,3,0,0,0,222.6,202Z" transform="translate(-0.1 -1.21)"/></svg>